<svg viewBox="0 0 1024 1024" version="1.1" xmlns="http://www.w3.org/2000/svg"><path d="M508.89697 0c-31.030303 0-58.957576 12.412121-77.575758 40.339394-18.618182 24.824242-21.721212 58.957576-9.309091 86.884848 15.515152 40.339394 24.824242 83.781818 24.824243 127.224243C449.939394 434.424242 304.09697 580.266667 124.121212 580.266667h-15.515151c-31.030303 0-58.957576 12.412121-77.575758 40.339394s-21.721212 62.060606-9.309091 89.987878C105.50303 899.878788 288.581818 1024 496.484848 1024c282.375758 0 512-229.624242 512-512 0-276.169697-217.212121-502.690909-499.587878-512 3.10303 0 0 0 0 0z" fill="#fff"></path></svg>