<svg viewBox="0 0 192 512" xmlns="http://www.w3.org/2000/svg"><path d="M178.425 138.212c0 2.265-1.133 4.813-2.832 6.512L64.276 256.001l111.317 111.277c1.7 1.7 2.832 4.247 2.832 6.513 0 2.265-1.133 4.813-2.832 6.512L161.43 394.46c-1.7 1.7-4.249 2.832-6.514 2.832-2.266 0-4.816-1.133-6.515-2.832L16.407 262.514c-1.699-1.7-2.832-4.248-2.832-6.513 0-2.265 1.133-4.813 2.832-6.512l131.994-131.947c1.7-1.699 4.249-2.831 6.515-2.831 2.265 0 4.815 1.132 6.514 2.831l14.163 14.157c1.7 1.7 2.832 3.965 2.832 6.513z" fill="#007bff"></path></svg>